<svg width="48" height="48" viewBox="0 0 48 48" fill="none" xmlns="http://www.w3.org/2000/svg">
  <path d="M24 4C12.96 4 4 12.96 4 24C4 35.04 12.96 44 24 44C35.04 44 44 35.04 44 24C44 12.96 35.04 4 24 4ZM24 11.6C28.24 11.6 31.6 14.96 31.6 19.2C31.6 23.44 28.24 26.8 24 26.8C19.76 26.8 16.4 23.44 16.4 19.2C16.4 14.96 19.76 11.6 24 11.6ZM24 38.8C19.2 38.8 14.92 36.48 12.4 32.92C12.48 28.48 21.2 26 24 26C26.76 26 35.52 28.48 35.6 32.92C33.08 36.48 28.8 38.8 24 38.8Z" fill="url(#paint0_linear_1_2)"/>
  <defs>
    <linearGradient id="paint0_linear_1_2" x1="8" y1="8" x2="40" y2="40" gradientUnits="userSpaceOnUse">
      <stop stop-color="#6366F1"/>
      <stop offset="1" stop-color="#8B5CF6"/>
    </linearGradient>
  </defs>
</svg>
<svg xmlns="http://www.w3.org/2000/svg" width="32" height="32" viewBox="0 0 24 24" fill="none" stroke="#6366f1" stroke-width="2" stroke-linecap="round" stroke-linejoin="round">
  <path d="M12 2L2 7l10 5 10-5-10-5z"></path>
  <path d="M2 17l10 5 10-5"></path>
  <path d="M2 12l10 5 10-5"></path>
</svg>